<svg width="105" height="104" viewBox="0 0 105 104" fill="none" xmlns="http://www.w3.org/2000/svg">
<path d="M61 46H48V104H61V46Z" fill="#3AA658"/>
<path d="M95.8538 53.13C86.0238 68.62 69.2038 77.64 49.8838 79.76H49.8638C43.5438 61.38 44.5338 42.31 54.3738 26.81C64.2038 11.31 81.0338 2.28999 100.364 0.179993C106.684 18.57 105.694 37.63 95.8538 53.13Z" fill="#3AA658"/>
<path opacity="0.1" d="M95.8538 53.13C86.0238 68.62 69.2038 77.64 49.8838 79.76H49.8738L100.364 0.190002C106.684 18.58 105.694 37.64 95.8538 53.14V53.13Z" fill="#18280F"/>
<path d="M49.9438 26.96C59.6638 42.52 60.5238 61.58 54.0738 79.92V79.94C34.7538 77.69 17.9938 68.55 8.27383 52.98C-1.44617 37.41 -2.30616 18.34 4.14384 0C23.4538 2.25 40.2138 11.39 49.9338 26.96H49.9438Z" fill="#3AA658"/>
<path opacity="0.1" d="M49.9438 26.96C59.6638 42.52 60.5238 61.58 54.0738 79.92H54.0638L4.15381 0.0100098C23.4638 2.26001 40.2238 11.4 49.9438 26.97V26.96Z" fill="#18280F"/>
</svg>
